<?xml version="1.0" encoding="UTF-8"?>
<svg width="100px" height="36px" viewBox="0 0 100 36" version="1.1" xmlns="http://www.w3.org/2000/svg" xmlns:xlink="http://www.w3.org/1999/xlink">
    <!-- Generator: Sketch 41.2 (35397) - http://www.bohemiancoding.com/sketch -->
    <title>cca</title>
    <desc>Created with Sketch.</desc>
    <defs></defs>
    <g id="about" stroke="none" stroke-width="1" fill="none" fill-rule="evenodd">
        <g id="cca">
            <g id="Layer_1">
                <path d="M17.7777778,34.8923077 C7.77777778,34.8923077 0,27.4153846 0,17.5846154 C0,7.61538462 7.77777778,0 17.7777778,0 C21.5277778,0 24.4444444,0.830769231 27.5,2.76923077 L27.5,9.13846154 C24.0277778,6.09230769 21.25,4.84615385 17.6388889,4.84615385 C10.6944444,4.84615385 5.69444444,10.1076923 5.69444444,17.4461538 C5.69444444,24.7846154 10.5555556,29.7692308 17.6388889,29.7692308 C21.5277778,29.7692308 24.0277778,28.6615385 27.6388889,25.6153846 L27.6388889,31.9846154 C24.1666667,34.0615385 21.3888889,34.8923077 17.7777778,34.8923077" id="Shape" fill="#3E4951"></path>
                <path d="M52.0833333,34.8923077 C42.0833333,34.8923077 34.3055556,27.4153846 34.3055556,17.4461538 C34.3055556,7.61538462 42.0833333,0 52.0833333,0 C55.8333333,0 58.75,0.830769231 61.8055556,2.76923077 L61.8055556,9.13846154 C58.3333333,6.23076923 55.5555556,4.98461538 51.8055556,4.98461538 C44.7222222,4.98461538 39.8611111,10.2461538 39.8611111,17.5846154 C39.8611111,24.9230769 44.7222222,29.9076923 51.8055556,29.9076923 C55.6944444,29.9076923 58.1944444,28.8 61.8055556,25.7538462 L61.8055556,32.1230769 C58.4722222,34.0615385 55.6944444,34.8923077 52.0833333,34.8923077" id="Shape" fill="#3E4951"></path>
                <path d="M80.1388889,11.9076923 C73.6111111,11.9076923 68.6111111,16.8923077 68.6111111,23.4 C68.6111111,29.9076923 73.75,35.0307692 80.1388889,35.0307692 C86.3888889,35.0307692 91.3888889,30.0461538 91.3888889,23.5384615 C91.3888889,17.0307692 86.3888889,11.9076923 80.1388889,11.9076923 L80.1388889,11.9076923 Z M80.1388889,30.1846154 C76.5277778,30.1846154 73.75,27.2769231 73.75,23.4 C73.75,19.5230769 76.5277778,16.6153846 80.2777778,16.6153846 C83.8888889,16.6153846 86.6666667,19.6615385 86.6666667,23.4 C86.6666667,27.1384615 83.8888889,30.1846154 80.1388889,30.1846154 Z" id="Shape" fill="#E32628"></path>
                <polyline id="Shape" fill="#E32628" points="76.1111111 0.830769231 73.1944444 5.67692308 94.1666667 5.67692308 94.1666667 33.9230769 99.4444444 33.9230769 99.4444444 0.830769231 76.1111111 0.830769231"></polyline>
            </g>
        </g>
    </g>
</svg>