<?xml version="1.0" encoding="UTF-8"?>
<svg width="498px" height="64px" viewBox="0 0 498 64" version="1.1" xmlns="http://www.w3.org/2000/svg" xmlns:xlink="http://www.w3.org/1999/xlink">
    <!-- Generator: Sketch 41.2 (35397) - http://www.bohemiancoding.com/sketch -->
    <title>daimler</title>
    <desc>Created with Sketch.</desc>
    <defs>
        <path d="M427.328795,63.6392936 C423.655418,63.3677831 423.029347,61.6652525 423.655418,59.3366505 L423.655418,59.3366505 L427.954867,59.3366505 C431.631439,59.3366505 432.886775,58.800018 432.886775,55.305518 L432.886775,55.305518 L432.886775,13.9081508 C432.886775,8.44599815 431.094806,7.54522211 423.294469,7.00858957 L423.294469,7.00858957 C423.029347,5.84269149 423.115591,4.49791591 423.294469,3.51408959 L423.294469,3.51408959 L451.521979,3.51408959 C454.118897,3.51408959 454.387214,4.94830393 454.118897,7.54522211 L454.118897,7.54522211 L449.554326,7.54522211 C444.893928,7.54522211 444.082591,8.44599815 444.082591,11.0429163 L444.082591,11.0429163 L444.082591,24.2127732 L450.087765,24.2127732 C455.556306,24.2127732 455.735183,23.9444569 457.974347,19.9133244 L457.974347,19.9133244 C460.302948,15.7863647 463.525938,12.2056202 466.487,9.60870199 L466.487,9.60870199 C473.118245,3.87503885 478.583591,2.07987524 486.917367,2.07987524 L486.917367,2.07987524 C496.413846,2.07987524 498.656204,4.41167139 497.848061,7.54522211 L497.848061,7.54522211 C490.054112,7.54522211 486.112418,8.35336516 474.280948,17.8530388 L474.280948,17.8530388 C470.875887,20.6320287 464.158398,26.8128856 464.158398,26.8128856 L464.158398,26.8128856 C471.591397,29.9464363 476.251795,36.0410487 476.251795,43.5666812 L476.251795,43.5666812 C476.251795,55.8421506 466.755316,63.9906601 449.554326,63.9906601 L449.554326,63.9906601 C437.007347,63.9906601 431.631439,63.9906601 427.328795,63.6392936 L427.328795,63.6392936 Z M444.082591,58.800018 L447.133092,58.800018 C457.258836,58.800018 464.42352,55.0340075 464.42352,42.94061 L464.42352,42.94061 C464.42352,30.8472124 457.258836,29.4098038 448.388428,29.4098038 L448.388428,29.4098038 L444.082591,29.4098038 L444.082591,58.800018 Z" id="path-1"></path>
    </defs>
    <g id="about" stroke="none" stroke-width="1" fill="none" fill-rule="evenodd">
        <g id="daimler">
            <path d="M14.8915531,62.2913237 C1.99001246,62.2913237 1.63225744,61.4863749 2.26152297,57.6341199 L2.26152297,57.6341199 L6.564166,57.6341199 C10.5952985,57.6341199 11.4896861,57.0942932 11.4896861,53.5997932 L11.4896861,53.5997932 L11.4896861,11.3080384 C11.4896861,5.30605895 9.78715548,4.67679342 0.201237335,4.14016088 L0.201237335,4.14016088 C-0.0670789343,2.97426281 -0.0670789343,1.5432427 0.201237335,0.645660898 L0.201237335,0.645660898 L33.8877061,0.645660898 C59.515104,0.645660898 70.0880427,13.010569 70.0880427,31.4700894 L70.0880427,31.4700894 C70.0880427,50.6419257 58.8890327,62.2913237 33.079563,62.2913237 L33.079563,62.2913237 L14.8915531,62.2913237 L14.8915531,62.2913237 Z M22.6886961,11.9341097 L22.6886961,57.0048544 L31.9168592,57.0048544 C49.1210428,57.0048544 58.0808897,46.9717425 58.0808897,29.7643646 L58.0808897,29.7643646 C58.0808897,10.4967011 48.316094,5.57756947 32.9965128,5.57756947 L32.9965128,5.57756947 C24.659543,5.57756947 22.6886961,6.46876279 22.6886961,11.9341097 L22.6886961,11.9341097 Z" id="path4484" fill="#023767" transform="translate(35.044021, 31.468492) scale(1, -1) translate(-35.044021, -31.468492) "></path>
            <path d="M109.779685,61.6652525 C105.569675,61.6652525 104.403777,60.2310381 101.449104,53.3314769 L101.449104,53.3314769 L83.7082876,11.3080384 C81.290247,5.57756947 80.4852982,5.03774269 73.585737,4.14016088 L73.585737,4.14016088 C73.3142265,2.97426281 73.3142265,1.5432427 73.585737,0.645660898 L73.585737,0.645660898 L99.2099407,0.645660898 C101.449104,0.645660898 102.075175,2.07987524 101.449104,4.67679342 L101.449104,4.67679342 L93.7445938,4.67679342 C88.8190737,4.67679342 88.8190737,6.02156901 90.8761651,11.3080384 L90.8761651,11.3080384 L94.5495426,21.0760283 L117.666267,21.0760283 L123.313686,7.54522211 C124.297512,5.2166202 123.313686,4.40847715 113.54889,4.14016088 L113.54889,4.14016088 C113.277379,2.97426281 113.277379,1.5432427 113.54889,0.645660898 L113.54889,0.645660898 L142.578155,0.645660898 C144.909951,0.645660898 145.443389,2.07987524 144.909951,4.67679342 L144.909951,4.67679342 L142.846471,4.67679342 C138.275512,4.67679342 137.291685,5.48493647 136.307859,7.81353838 L136.307859,7.81353838 L115.605981,55.0340075 C114.171767,58.1675582 113.54889,59.6912113 113.277379,61.6652525 L113.277379,61.6652525 L109.779685,61.6652525 L109.779685,61.6652525 Z M105.841186,49.3003444 L115.605981,26.0047426 L96.5203895,26.0047426 L105.841186,49.3003444 Z" id="path4498" fill="#023868" transform="translate(109.240962, 31.155457) scale(1, -1) translate(-109.240962, -31.155457) "></path>
            <path d="M154.674747,60.4993544 C150.908736,60.4993544 150.372104,58.7968238 150.908736,56.4682219 L150.908736,56.4682219 L155.208185,56.4682219 C159.33195,56.4682219 160.140093,55.9315893 160.140093,52.7054056 L160.140093,52.7054056 L160.140093,9.87701826 C160.140093,6.20364076 158.434369,5.30605895 151.269685,4.14016088 L151.269685,4.14016088 C150.908736,2.97426281 150.908736,1.5432427 151.269685,0.645660898 L151.269685,0.645660898 L178.506981,0.645660898 C181.193338,0.645660898 181.464848,2.07987524 180.838777,4.67679342 L180.838777,4.67679342 L175.999502,4.67679342 C172.233491,4.67679342 171.339103,5.30605895 171.339103,8.44280391 L171.339103,8.44280391 L171.339103,51.002875 C171.339103,54.7656912 172.505002,56.4682219 180.29895,57.0048544 L180.29895,57.0048544 C180.567267,57.9024362 180.567267,59.6912113 180.29895,60.4993544 L180.29895,60.4993544 L154.674747,60.4993544 L154.674747,60.4993544 Z" id="path4512" fill="#023868" transform="translate(165.926423, 30.572508) scale(1, -1) translate(-165.926423, -30.572508) "></path>
            <path d="M262.285542,61.0359869 L241.590052,17.9360891 L219.096205,61.0359869 L200.997634,61.0359869 C197.231623,61.0359869 196.694991,59.06514 197.231623,57.0048544 L197.231623,57.0048544 C206.105226,56.7365381 206.641858,55.7495176 206.373542,52.8842831 L206.373542,52.8842831 L202.69697,10.7714058 C202.431848,7.00539533 201.626899,5.21342596 191.769471,4.67679342 L191.769471,4.67679342 C191.49796,3.51089534 191.49796,2.35138575 191.769471,1.18229344 L191.769471,1.18229344 L221.156491,1.18229344 C223.667164,1.18229344 224.024919,2.61650778 223.395654,5.21342596 L223.395654,5.21342596 L218.562767,5.21342596 C209.063093,5.21342596 209.063093,6.114202 209.331409,9.60550774 L209.331409,9.60550774 L212.199838,49.8369769 L236.929654,0.913977167 C238.986746,0.913977167 239.70545,1.45060971 241.321736,4.67679342 L241.321736,4.67679342 L262.822174,49.8369769 L266.853307,10.7714058 C267.300501,6.37932403 266.051552,5.39230347 258.522726,4.94510969 L258.522726,4.94510969 L253.68345,4.67679342 C253.325695,3.51089534 253.325695,2.35138575 253.68345,1.18229344 L253.68345,1.18229344 L285.312827,1.18229344 C287.820307,1.18229344 288.088623,2.61650778 287.820307,5.21342596 L287.820307,5.21342596 C280.920746,6.114202 279.486531,6.37932403 279.221409,9.24775272 L279.221409,9.24775272 L274.918766,52.9737219 C274.65045,55.5706401 275.187082,57.0048544 283.517664,57.5414869 L283.517664,57.5414869 C283.878613,58.7041908 283.878613,59.8732831 283.517664,61.0359869 L283.517664,61.0359869 L262.285542,61.0359869 Z" id="path4526" fill="#033768" transform="translate(239.734649, 30.974982) scale(1, -1) translate(-239.734649, -30.974982) "></path>
            <path d="M305.113929,60.4993544 C301.351113,60.4993544 300.81448,58.7968238 301.351113,56.4682219 L301.351113,56.4682219 L305.650562,56.4682219 C309.413378,56.4682219 310.58247,55.9315893 310.58247,52.7054056 L310.58247,52.7054056 L310.58247,11.6689876 C310.58247,5.84269149 308.608429,4.67679342 299.916899,4.14016088 L299.916899,4.14016088 C299.648582,2.97426281 299.738021,1.81475321 299.916899,0.645660898 L299.916899,0.645660898 L343.642868,0.645660898 C344.808766,6.20364076 346.421858,11.4006714 348.303266,16.7733852 L348.303266,16.7733852 C349.251955,19.4469652 348.044532,20.54259 345.63288,20.54259 L345.63288,20.54259 C345.537053,20.54259 345.441226,20.5393957 345.342204,20.5362015 L345.342204,20.5362015 L342.834725,14.9846101 C339.071908,6.91915081 338.180715,6.46876279 331.543082,6.46876279 L331.543082,6.46876279 L325.812613,6.46876279 C323.305133,6.46876279 321.78148,7.27690584 321.78148,10.2347733 L321.78148,10.2347733 L321.78148,49.8369769 C321.78148,55.6600788 323.57345,56.4682219 332.98049,57.0048544 L332.98049,57.0048544 C333.248806,57.9024362 333.248806,59.6912113 332.98049,60.4993544 L332.98049,60.4993544 L305.113929,60.4993544 L305.113929,60.4993544 Z" id="path4540" fill="#063663" transform="translate(324.187422, 30.572508) scale(1, -1) translate(-324.187422, -30.572508) "></path>
            <path d="M363.175653,60.4993544 C359.230765,60.4993544 358.879399,58.7968238 359.230765,56.4682219 L359.230765,56.4682219 L363.533408,56.4682219 C367.564541,56.4682219 368.372684,55.9315893 368.372684,52.7054056 L368.372684,52.7054056 L368.372684,11.3080384 C368.372684,5.30605895 366.670153,4.67679342 357.17048,4.14016088 L357.17048,4.14016088 C356.812725,2.97426281 356.812725,1.81475321 357.17048,0.645660898 L357.17048,0.645660898 L406.630112,0.645660898 C407.799204,6.20364076 409.501735,11.6689876 411.29051,16.7733852 L411.29051,16.7733852 C412.159344,19.3703034 411.018999,20.54259 408.604153,20.54259 L408.604153,20.54259 C408.517908,20.54259 408.425275,20.5393957 408.335837,20.5362015 L408.335837,20.5362015 L405.828357,14.9846101 C402.062347,6.91915081 401.171153,6.46876279 394.53352,6.46876279 L394.53352,6.46876279 L386.832204,6.46876279 C380.737592,6.46876279 379.932643,7.81353838 379.932643,11.0397221 L379.932643,11.0397221 L379.932643,26.8096914 L389.339684,26.8096914 C391.67148,26.8096914 392.834184,26.0047426 394.000082,19.0125484 L394.000082,19.0125484 C394.466441,18.8049227 395.012656,18.7122897 395.539706,18.7122897 L395.539706,18.7122897 C396.133835,18.7122897 396.708798,18.8240881 397.130438,19.0125484 L397.130438,19.0125484 C396.865316,24.8388445 396.865316,31.0228957 397.130438,36.66712 L397.130438,36.66712 C397.315704,39.4429157 396.325489,40.0721813 394.53352,40.0721813 L394.53352,40.0721813 L393.460255,40.0721813 L392.834184,35.501222 C392.565867,33.1726201 392.026041,32.2750383 389.339684,32.2750383 L389.339684,32.2750383 L379.932643,32.2750383 L379.932643,55.3023238 L394.268398,55.3023238 C399.193918,55.3023238 401.075326,53.8681094 402.602174,48.4027626 L402.602174,48.4027626 L403.764877,44.3716301 C403.98528,44.3524646 404.189712,44.3396876 404.387754,44.3396876 L404.387754,44.3396876 C406.783435,44.3396876 407.671435,45.8345926 407.259377,48.4027626 L407.259377,48.4027626 C406.630112,52.2582118 406.096674,56.4682219 405.828357,60.4993544 L405.828357,60.4993544 L363.175653,60.4993544 L363.175653,60.4993544 Z" id="path4554" fill="#03376E" transform="translate(384.241181, 30.572508) scale(1, -1) translate(-384.241181, -30.572508) "></path>
            <mask id="mask-2" fill="white">
                <use xlink:href="#path-1"></use>
            </mask>
            <use id="path4568" fill="#083661" transform="translate(460.563212, 33.035268) scale(1, -1) translate(-460.563212, -33.035268) " xlink:href="#path-1"></use>
        </g>
    </g>
</svg>