<?xml version="1.0" encoding="UTF-8"?>
<svg width="73px" height="23px" viewBox="0 0 73 23" version="1.1" xmlns="http://www.w3.org/2000/svg" xmlns:xlink="http://www.w3.org/1999/xlink">
    <!-- Generator: Sketch 41.2 (35397) - http://www.bohemiancoding.com/sketch -->
    <title>fedex</title>
    <desc>Created with Sketch.</desc>
    <defs></defs>
    <g id="about" stroke="none" stroke-width="1" fill="none" fill-rule="evenodd">
        <g id="Bitmap" transform="translate(0.000000, -773.000000)">
            <g id="fedex" transform="translate(0.000000, 773.000000)">
                <polygon id="polygon10" fill="#FF5900" points="60.14 8.41799966 63.118 11.6999997 65.985 8.41799966 72.107 8.41799966 66.124 15.1459997 72.189 21.9289997 65.82 21.9289997 62.87 18.6209997 59.947 21.9289997 53.797 21.9289997 59.809 15.1739997 53.797 8.41799966"></polygon>
                <polygon id="polygon12" fill="#FF5900" points="53.797 8.41799966 53.797 12.9829997 46.988 12.9829997 46.988 17.1719997 53.797 17.1719997 53.797 21.9289997 41.984 21.9289997 41.984 0.64599966 53.797 0.64599966 53.797 5.38999966 46.988 5.38999966 46.988 8.41799966"></polygon>
                <path d="M37.001,0.64599966 L37.001,9.35599966 L36.946,9.35599966 C35.842,8.08799966 34.464,7.64699966 32.865,7.64699966 C29.589,7.64699966 27.121,9.87499966 26.255,12.8189997 C25.266,9.57499966 22.718,7.58599966 18.94,7.58599966 C15.872,7.58599966 13.449,8.96299966 12.185,11.2069997 L12.185,8.41799966 L5.843,8.41799966 L5.843,5.38999966 L12.764,5.38999966 L12.764,0.64599966 L0.19,0.64599966 L0.19,21.9289997 L5.843,21.9289997 L5.843,12.9829997 L11.478,12.9829997 C11.31,13.6399997 11.22,14.3439997 11.22,15.0869997 C11.22,19.5259997 14.612,22.6419997 18.94,22.6419997 C22.58,22.6419997 24.979,20.9329997 26.247,17.8179997 L21.402,17.8179997 C20.747,18.7549997 20.25,19.0319997 18.94,19.0319997 C17.421,19.0319997 16.111,17.7069997 16.111,16.1359997 L25.976,16.1359997 C26.404,19.6619997 29.151,22.7029997 32.92,22.7029997 C34.546,22.7029997 36.035,21.9029997 36.945,20.5529997 L37,20.5529997 L37,21.9309997 L41.983,21.9309997 L41.983,0.64599966 L37.001,0.64599966 Z M16.269,13.0459997 C16.583,11.6939997 17.632,10.8109997 18.941,10.8109997 C20.382,10.8109997 21.377,11.6669997 21.639,13.0459997 C21.749,13.0459997 16.269,13.0459997 16.269,13.0459997 Z M33.976,18.6889997 C32.139,18.6889997 30.997,16.9769997 30.997,15.1899997 C30.997,13.2799997 31.99,11.4429997 33.976,11.4429997 C36.035,11.4429997 36.855,13.2799997 36.855,15.1899997 C36.855,17.0009997 35.986,18.6889997 33.976,18.6889997 Z" id="path14" fill="#2A007C"></path>
            </g>
        </g>
    </g>
</svg>