<?xml version="1.0" encoding="UTF-8"?>
<svg width="100px" height="19px" viewBox="0 0 100 19" version="1.1" xmlns="http://www.w3.org/2000/svg" xmlns:xlink="http://www.w3.org/1999/xlink">
    <!-- Generator: Sketch 41.2 (35397) - http://www.bohemiancoding.com/sketch -->
    <title>Combined Shape Copy</title>
    <desc>Created with Sketch.</desc>
    <defs></defs>
    <g id="about" stroke="none" stroke-width="1" fill="none" fill-rule="evenodd">
        <g id="Group-2" transform="translate(-2274.000000, 0.000000)" fill="#269DE9">
            <path d="M2306.572,18.6062176 L2311.93446,18.6062176 L2311.93446,4.33160622 L2306.572,4.33160622 L2306.572,18.6062176 Z M2373.50348,14.9637306 L2373.50348,8.66321244 C2373.50348,4.62694301 2370.22642,3.83937824 2366.75074,3.83937824 C2365.06256,3.83937824 2363.47368,4.13471503 2362.18272,4.8238342 C2360.89176,5.51295337 2359.99801,6.79274611 2359.89871,8.66321244 L2364.26812,8.66321244 C2364.46673,7.48186528 2365.36048,6.89119171 2366.65144,6.89119171 C2367.64449,6.89119171 2368.93545,7.28497409 2368.93545,8.36787565 C2368.93545,9.25388601 2368.53823,9.5492228 2367.64449,9.64766839 C2364.36743,10.3367876 2359.20357,9.94300518 2359.20357,14.5699482 C2359.20357,17.5233161 2361.38828,18.9015544 2364.16882,18.9015544 C2365.857,18.9015544 2367.54518,18.4093264 2368.73684,17.3264249 C2368.83615,17.2279793 2368.93545,17.1295337 2369.03476,16.9326425 C2368.93545,17.1295337 2369.03476,17.3264249 2369.03476,17.4248705 C2369.03476,17.8186528 2369.13406,18.1139896 2369.23337,18.507772 L2374,18.507772 C2373.50348,17.5233161 2373.50348,16.1450777 2373.50348,14.9637306 Z M2366.05561,16.1450777 C2364.96326,16.1450777 2364.06951,15.6528497 2364.06951,14.4715026 C2364.06951,13.2901554 2364.96326,12.8963731 2366.05561,12.6010363 C2367.04866,12.4041451 2367.9424,12.3056995 2368.63754,12.0103627 C2368.83615,11.9119171 2368.93545,11.8134715 2369.03476,11.8134715 L2369.03476,12.2072539 C2369.03476,14.9637306 2368.33962,16.1450777 2366.05561,16.1450777 Z M2339.04469,3.93782383 C2337.45581,3.93782383 2336.16485,4.43005181 2335.2711,5.51295337 C2335.07249,5.80829016 2334.87388,6.00518135 2334.77458,6.20207254 C2334.87388,6.00518135 2334.87388,5.61139896 2334.87388,5.11917098 L2334.87388,0 L2330.10725,0 L2330.10725,18.7046632 L2334.57597,18.7046632 L2334.57597,17.5233161 C2334.57597,17.1295337 2334.57597,16.9326425 2334.47666,16.7357513 C2334.57597,16.9326425 2334.67527,17.1295337 2334.87388,17.3264249 C2335.76763,18.4093264 2337.05859,19 2338.54816,19 C2343.11619,19 2345.00298,15.1606218 2345.00298,11.1243523 C2345.10228,7.48186528 2343.11619,3.93782383 2339.04469,3.93782383 Z M2337.55511,15.4559585 C2335.37041,15.4559585 2334.67527,13.7823834 2334.67527,11.3212435 C2334.67527,8.36787565 2336.26415,7.48186528 2337.55511,7.48186528 C2339.64052,7.48186528 2340.33565,9.4507772 2340.33565,11.3212435 C2340.33565,13.2901554 2339.64052,15.4559585 2337.55511,15.4559585 Z M2279.66038,15.1606218 C2279.85899,15.0621762 2280.1569,14.865285 2280.45482,14.5699482 L2287.10824,7.87564767 L2287.10824,4.33160622 L2274.49652,4.33160622 L2274.49652,7.87564767 L2280.35551,7.87564767 C2280.85204,7.87564767 2281.14995,7.87564767 2281.34856,7.77720207 C2281.14995,7.87564767 2280.95134,8.07253886 2280.65343,8.36787565 L2274,14.9637306 L2274,18.6062176 L2287.70407,18.6062176 L2287.70407,15.0621762 L2280.75273,15.0621762 C2280.1569,15.0621762 2279.75968,15.0621762 2279.66038,15.1606218 Z" id="Combined-Shape-Copy"></path>
        </g>
    </g>
</svg>